<svg xmlns="http://www.w3.org/2000/svg" viewBox="0 0 512 512">
  <path d="M256 45 118 132c-5 3-8 9-8 15 1 19 3 38 7 57H96c-10 0-18 8-18 18v33H16c-7 0-13 4-16 10-2 6-1 13 3 18l28 36-28 35c-4 5-5 12-3 18 3 6 9 10 16 10h96c10 0 18-8 18-18v-19h14c20 45 46 87 80 125l19 22c3 4 8 6 13 6s10-2 13-6l19-22c34-38 60-80 80-125h14v19c0 10 8 18 18 18h96c7 0 13-4 16-10 2-6 1-13-3-18l-28-35 28-36c4-5 5-12 3-18-3-6-9-10-16-10h-62v-33c0-10-8-18-18-18h-20c4-19 6-38 7-57 0-6-3-12-8-15L256 45Zm0 38 102 64c-1 19-4 38-8 57H162c-4-19-7-38-8-57l102-64Zm-142 157h284v69H114v-69Zm108 105h68c-10 17-21 33-34 49-13-16-24-32-34-49Zm-119 0v1H54l15-19c4-6 4-14 0-20l-15-19h24v39c0 10 8 18 18 18h7Zm306 0h7c10 0 18-8 18-18v-39h24l-15 19c-4 6-4 14 0 20l15 19h-49v-1ZM183 345c16 34 38 67 66 98l7 8 7-8c28-31 50-64 66-98h1c-18 35-42 69-74 103-32-34-56-68-74-103h1Z"/>
</svg>
